<?xml version="1.0" encoding="UTF-8"?>
<svg version="1.1" xmlns="http://www.w3.org/2000/svg" width="1080" height="1350">
<path d="M0 0 C0.74886475 0.00523682 1.49772949 0.01047363 2.26928711 0.01586914 C3.07817383 0.0190918 3.88706055 0.02231445 4.72045898 0.02563477 C5.5705957 0.03401367 6.42073242 0.04239258 7.29663086 0.05102539 C8.15063477 0.05553711 9.00463867 0.06004883 9.88452148 0.06469727 C12.00108749 0.07652166 14.11761771 0.0944577 16.23413086 0.11352539 C16.23413086 0.77352539 16.23413086 1.43352539 16.23413086 2.11352539 C16.97663086 1.92790039 17.71913086 1.74227539 18.48413086 1.55102539 C21.18404049 1.12149431 22.68044163 1.26229565 25.23413086 2.11352539 C25.23413086 2.77352539 25.23413086 3.43352539 25.23413086 4.11352539 C25.93538086 4.21665039 26.63663086 4.31977539 27.35913086 4.42602539 C33.66229689 5.93330422 38.81817647 9.42320697 43.23413086 14.11352539 C43.23413086 14.77352539 43.23413086 15.43352539 43.23413086 16.11352539 C44.22139354 17.1261025 45.22328192 18.12449333 46.23413086 19.11352539 C50.12580901 24.98566609 51.26885629 31.24191733 52.23413086 38.11352539 C52.40525391 39.16303879 52.57637695 40.21255219 52.75268555 41.29386902 C53.24922574 45.23328408 53.36097615 49.07578818 53.33178711 53.03662109 C53.32959671 54.17450325 53.32959671 54.17450325 53.32736206 55.33537292 C53.32357879 56.96951775 53.31748659 58.60365857 53.30929565 60.23778725 C53.29646716 62.82228543 53.2900007 65.40673199 53.28515625 67.99125671 C53.27376857 73.46953629 53.25450012 78.94777283 53.23413086 84.42602539 C53.21054071 90.79272842 53.19016931 97.15940767 53.17819214 103.52614403 C53.17169784 106.07551162 53.15919509 108.62480547 53.14648438 111.17414856 C53.14285376 112.72856583 53.1395018 114.28298378 53.13647461 115.83740234 C53.12872513 116.90415695 53.12872513 116.90415695 53.12081909 117.99246216 C53.06965312 121.67656968 53.06965312 121.67656968 54.23413086 125.11352539 C53.90413086 125.77352539 53.57413086 126.43352539 53.23413086 127.11352539 C53.89413086 127.44352539 54.55413086 127.77352539 55.23413086 128.11352539 C55.23413086 129.10352539 55.23413086 130.09352539 55.23413086 131.11352539 C55.89413086 131.11352539 56.55413086 131.11352539 57.23413086 131.11352539 C57.95600586 131.91790039 58.67788086 132.72227539 59.42163086 133.55102539 C62.83327991 136.65941675 64.6582063 137.11352539 69.23413086 137.11352539 C72.01720692 135.77809867 72.01720692 135.77809867 74.23413086 134.11352539 C74.89413086 134.11352539 75.55413086 134.11352539 76.23413086 134.11352539 C76.89413086 132.46352539 77.55413086 130.81352539 78.23413086 129.11352539 C78.89413086 129.11352539 79.55413086 129.11352539 80.23413086 129.11352539 C80.20319336 127.78321289 80.20319336 127.78321289 80.17163086 126.42602539 C80.23413086 123.11352539 80.23413086 123.11352539 80.72796631 120.98007202 C81.43803919 116.95873743 81.38996132 113.01243029 81.39526367 108.9362793 C81.40022858 108.02020401 81.40519348 107.10412872 81.41030884 106.16029358 C81.42488589 103.13688398 81.43172445 100.11352682 81.43725586 97.09008789 C81.44301025 94.98407999 81.44876795 92.87807209 81.45452881 90.77206421 C81.4650256 86.3588639 81.47087716 81.94568174 81.47436523 77.5324707 C81.47985219 71.884465 81.50389023 66.23670008 81.53233719 60.58876991 C81.55098113 56.23926089 81.55617007 51.88980973 81.55770111 47.54026413 C81.56072335 45.45830339 81.56873737 43.37634356 81.58188629 41.29442215 C81.59898599 38.37928275 81.59705706 35.46473007 81.59057617 32.54956055 C81.60439835 31.26661354 81.60439835 31.26661354 81.61849976 29.95774841 C81.58095178 24.55229971 80.55708061 20.9831231 78.23413086 16.11352539 C78.23413086 15.12352539 78.23413086 14.13352539 78.23413086 13.11352539 C77.24413086 12.78352539 76.25413086 12.45352539 75.23413086 12.11352539 C74.24413086 11.12352539 74.24413086 11.12352539 73.23413086 10.11352539 C71.25287236 9.39306775 69.24908993 8.7335128 67.23413086 8.11352539 C65.23413086 7.44685872 63.23413086 6.78019206 61.23413086 6.11352539 C61.56413086 4.79352539 61.89413086 3.47352539 62.23413086 2.11352539 C68.35387504 2.01422849 74.47314438 1.94185443 80.59350586 1.89379883 C82.67301611 1.8737538 84.75247049 1.84651026 86.83178711 1.81176758 C89.83062573 1.76293591 92.82871549 1.74048511 95.82788086 1.72290039 C96.74903687 1.70225525 97.67019287 1.68161011 98.6192627 1.66033936 C104.45711207 1.65833579 109.5602802 2.35257074 114.23413086 6.11352539 C118.19734087 10.75473167 117.65472214 15.8161594 117.61889648 21.60424805 C117.62426926 22.66020172 117.62964203 23.7161554 117.63517761 24.80410767 C117.64495387 27.09522294 117.64790023 29.38637524 117.64482117 31.67750931 C117.64034034 35.31044372 117.65435378 38.9428917 117.67321777 42.57577515 C117.71001049 50.2966839 117.72370131 58.0175419 117.73413086 65.73852539 C117.74622798 74.66731352 117.76791292 83.59586528 117.81413269 92.52454758 C117.82764831 96.09121879 117.8235407 99.65758714 117.81872559 103.22427368 C117.82807389 105.4316648 117.83824463 107.63905264 117.84936523 109.84643555 C117.84321701 110.82761353 117.83706879 111.8087915 117.83073425 112.81970215 C117.88833973 119.3751277 118.41773607 126.10255106 121.23413086 132.11352539 C123.17193416 133.33735715 123.17193416 133.33735715 125.23413086 134.11352539 C127.23413086 136.11352539 127.23413086 136.11352539 128.23413086 138.11352539 C129.55413086 137.78352539 130.87413086 137.45352539 132.23413086 137.11352539 C132.23413086 137.77352539 132.23413086 138.43352539 132.23413086 139.11352539 C134.21413086 139.11352539 136.19413086 139.11352539 138.23413086 139.11352539 C138.23413086 140.43352539 138.23413086 141.75352539 138.23413086 143.11352539 C123.71753393 143.18363237 109.20096328 143.23632232 94.68423176 143.26896191 C87.94372712 143.28442534 81.20332772 143.3055047 74.46289062 143.33984375 C67.95956504 143.37295902 61.45630778 143.39037262 54.95290184 143.39815712 C52.47015854 143.40370564 49.98742131 143.41454033 47.5047245 143.43071556 C44.03068671 143.45245198 40.55710253 143.45549383 37.08300781 143.45410156 C35.53904831 143.4702803 35.53904831 143.4702803 33.96389771 143.48678589 C25.00518362 143.44786533 25.00518362 143.44786533 21.23413086 140.11352539 C20.90413086 139.12352539 20.57413086 138.13352539 20.23413086 137.11352539 C19.57413086 136.78352539 18.91413086 136.45352539 18.23413086 136.11352539 C17.57413086 135.12352539 16.91413086 134.13352539 16.23413086 133.11352539 C13.34717006 134.77571494 10.7424392 136.49704489 8.10913086 138.55102539 C3.6583671 141.7763586 -1.43963986 143.80741184 -6.76586914 145.11352539 C-7.75586914 144.78352539 -8.74586914 144.45352539 -9.76586914 144.11352539 C-9.76586914 144.77352539 -9.76586914 145.43352539 -9.76586914 146.11352539 C-25.92988437 147.8643665 -40.28649882 147.91655391 -54.51586914 138.92602539 C-55.25836914 138.32790039 -56.00086914 137.72977539 -56.76586914 137.11352539 C-56.76586914 136.45352539 -56.76586914 135.79352539 -56.76586914 135.11352539 C-57.38461914 135.03102539 -58.00336914 134.94852539 -58.64086914 134.86352539 C-60.76586914 134.11352539 -60.76586914 134.11352539 -61.76782227 132.29711914 C-62.26185547 131.21624023 -62.26185547 131.21624023 -62.76586914 130.11352539 C-63.28697266 129.21053711 -63.28697266 129.21053711 -63.81860352 128.28930664 C-66.69692712 123.1374854 -67.38573542 118.96699523 -67.26586914 113.11352539 C-67.28133789 112.35813477 -67.29680664 111.60274414 -67.31274414 110.82446289 C-67.27290382 105.02769693 -65.631549 101.07928604 -62.76586914 96.11352539 C-62.44344238 95.4201709 -62.12101562 94.72681641 -61.78881836 94.01245117 C-60.25952448 91.17358536 -58.00458346 89.83143924 -55.39086914 87.98852539 C-54.43438477 87.30532227 -53.47790039 86.62211914 -52.49243164 85.91821289 C-46.74422412 82.11352539 -46.74422412 82.11352539 -42.76586914 82.11352539 C-42.43586914 81.45352539 -42.10586914 80.79352539 -41.76586914 80.11352539 C-39.32836914 78.92602539 -39.32836914 78.92602539 -36.76586914 78.11352539 C-36.10586914 78.44352539 -35.44586914 78.77352539 -34.76586914 79.11352539 C-34.43586914 78.45352539 -34.10586914 77.79352539 -33.76586914 77.11352539 C-32.77586914 77.60852539 -32.77586914 77.60852539 -31.76586914 78.11352539 C-31.43586914 77.45352539 -31.10586914 76.79352539 -30.76586914 76.11352539 C-27.82836914 74.92602539 -27.82836914 74.92602539 -24.76586914 74.11352539 C-23.77586914 74.60852539 -23.77586914 74.60852539 -22.76586914 75.11352539 C-22.76586914 74.45352539 -22.76586914 73.79352539 -22.76586914 73.11352539 C-21.83967773 72.76741211 -21.83967773 72.76741211 -20.89477539 72.41430664 C-15.51537353 70.3427866 -10.53824382 68.00714752 -5.57836914 65.06665039 C-3.76586914 64.11352539 -3.76586914 64.11352539 -1.76586914 64.11352539 C-1.43586914 63.12352539 -1.10586914 62.13352539 -0.76586914 61.11352539 C1.67163086 58.42602539 1.67163086 58.42602539 4.23413086 56.11352539 C4.89413086 56.11352539 5.55413086 56.11352539 6.23413086 56.11352539 C6.50225586 55.26790039 6.77038086 54.42227539 7.04663086 53.55102539 C8.23413086 50.11352539 8.23413086 50.11352539 9.73413086 46.80102539 C13.8559317 36.668265 15.02415355 25.53608778 11.23413086 15.11352539 C10.57413086 15.11352539 9.91413086 15.11352539 9.23413086 15.11352539 C8.63600586 14.30915039 8.03788086 13.50477539 7.42163086 12.67602539 C5.49868367 9.98896503 5.49868367 9.98896503 2.92163086 9.30102539 C0.82164082 9.15451446 -1.28577446 9.11352539 -3.39086914 9.11352539 C-6.76586914 9.11352539 -6.76586914 9.11352539 -9.76586914 8.11352539 C-10.09586914 8.77352539 -10.42586914 9.43352539 -10.76586914 10.11352539 C-11.42586914 9.78352539 -12.08586914 9.45352539 -12.76586914 9.11352539 C-13.09586914 9.77352539 -13.42586914 10.43352539 -13.76586914 11.11352539 C-14.73524414 11.62915039 -15.70461914 12.14477539 -16.70336914 12.67602539 C-25.10134973 17.3492343 -31.29950111 24.20149704 -36.39086914 32.24243164 C-37.07149414 33.16862305 -37.07149414 33.16862305 -37.76586914 34.11352539 C-38.42586914 34.11352539 -39.08586914 34.11352539 -39.76586914 34.11352539 C-39.76586914 35.43352539 -39.76586914 36.75352539 -39.76586914 38.11352539 C-40.42586914 38.11352539 -41.08586914 38.11352539 -41.76586914 38.11352539 C-42.01336914 39.12415039 -42.26086914 40.13477539 -42.51586914 41.17602539 C-43.48045795 44.60031567 -44.9755021 47.31295872 -46.81274414 50.33618164 C-48.32153959 53.14971415 -49.00851104 56.02097981 -49.76586914 59.11352539 C-50.42586914 59.11352539 -51.08586914 59.11352539 -51.76586914 59.11352539 C-51.76586914 59.77352539 -51.76586914 60.43352539 -51.76586914 61.11352539 C-52.75586914 60.78352539 -53.74586914 60.45352539 -54.76586914 60.11352539 C-54.16519013 51.01387746 -53.55595652 42.06396229 -51.76586914 33.11352539 C-51.1705283 28.72288668 -50.68592255 24.33658619 -50.26586914 19.92602539 C-49.93982873 16.59939432 -49.53269132 13.37251967 -48.76586914 10.11352539 C-48.62149414 9.43290039 -48.47711914 8.75227539 -48.32836914 8.05102539 C-47.70803717 5.91432636 -46.8147027 4.07134803 -45.76586914 2.11352539 C-41.89793744 2.51023633 -38.81084766 3.4676965 -35.32836914 5.11352539 C-30.13652459 7.49638202 -25.97812374 8.5480754 -20.26586914 7.42602539 C-17.60537154 6.42833879 -15.63899465 5.5024459 -13.26586914 4.05102539 C-9.85985939 1.9704312 -6.74306446 1.51124492 -2.76586914 1.11352539 C-1.76586914 0.11352539 -1.76586914 0.11352539 0 0 Z M15.23413086 54.11352539 C14.33426554 55.47238241 13.46509216 56.85159344 12.60913086 58.23852539 C6.15487289 68.00383296 -4.25297682 74.28327757 -14.76586914 79.11352539 C-14.76586914 79.77352539 -14.76586914 80.43352539 -14.76586914 81.11352539 C-15.75586914 81.11352539 -16.74586914 81.11352539 -17.76586914 81.11352539 C-20.37001628 83.46765305 -20.37001628 83.46765305 -22.76586914 86.11352539 C-23.42586914 86.77352539 -24.08586914 87.43352539 -24.76586914 88.11352539 C-25.40839264 90.18226573 -25.40839264 90.18226573 -25.76586914 92.11352539 C-26.42586914 92.11352539 -27.08586914 92.11352539 -27.76586914 92.11352539 C-31.33918066 103.48519601 -34.15518744 115.49338273 -29.76586914 127.11352539 C-26.2534732 131.79671998 -21.20731488 135.01055119 -15.76586914 137.11352539 C-12.62536623 137.49361651 -9.94363002 137.36572864 -6.76586914 137.11352539 C-6.76586914 136.45352539 -6.76586914 135.79352539 -6.76586914 135.11352539 C-5.28086914 135.60852539 -5.28086914 135.60852539 -3.76586914 136.11352539 C1.66255689 134.09856726 7.06094576 131.14760432 11.23413086 127.11352539 C11.23413086 126.45352539 11.23413086 125.79352539 11.23413086 125.11352539 C11.89413086 125.11352539 12.55413086 125.11352539 13.23413086 125.11352539 C17.18972378 118.21975273 16.61686358 111.17891812 16.52709961 103.42993164 C16.52149668 102.00504505 16.51722988 100.58015264 16.51423645 99.15525818 C16.50284239 95.42497492 16.47342311 91.69504823 16.44012451 87.96490479 C16.40930544 84.15056174 16.39570596 80.33616047 16.38061523 76.52172852 C16.3485473 69.05216582 16.29741804 61.58289578 16.23413086 54.11352539 C15.90413086 54.11352539 15.57413086 54.11352539 15.23413086 54.11352539 Z " fill="#020202" transform="translate(435.765869140625,570.886474609375)"/>
<path d="M0 0 C1.12148438 0.00322266 2.24296875 0.00644531 3.3984375 0.00976562 C4.5740625 0.01814453 5.7496875 0.02652344 6.9609375 0.03515625 C8.14429688 0.03966797 9.32765625 0.04417969 10.546875 0.04882812 C13.47661257 0.06064158 16.40625022 0.07711367 19.3359375 0.09765625 C19.3359375 2.07765625 19.3359375 4.05765625 19.3359375 6.09765625 C18.57667969 6.31679688 17.81742188 6.5359375 17.03515625 6.76171875 C10.91229203 8.62589349 10.91229203 8.62589349 6.1484375 12.66015625 C4.224241 20.8009876 4.952608 27.51899817 8.3359375 35.09765625 C8.6659375 36.08765625 8.9959375 37.07765625 9.3359375 38.09765625 C10.6512716 38.79916777 11.98711342 39.4629155 13.3359375 40.09765625 C15.0859375 41.59765625 15.0859375 41.59765625 16.3359375 43.09765625 C16.3359375 43.75765625 16.3359375 44.41765625 16.3359375 45.09765625 C16.9959375 45.09765625 17.6559375 45.09765625 18.3359375 45.09765625 C20.3359375 48.09765625 20.3359375 48.09765625 20.3359375 51.09765625 C20.9959375 51.42765625 21.6559375 51.75765625 22.3359375 52.09765625 C22.3359375 53.08765625 22.3359375 54.07765625 22.3359375 55.09765625 C22.9959375 55.42765625 23.6559375 55.75765625 24.3359375 56.09765625 C31.58508044 67.39692764 32.85370609 84.34693491 30.5234375 97.22265625 C29.04477812 103.77249253 27.3923349 110.63033802 23.3359375 116.09765625 C22.6759375 116.09765625 22.0159375 116.09765625 21.3359375 116.09765625 C21.06007813 116.68804688 20.78421875 117.2784375 20.5 117.88671875 C16.26691037 125.92674804 8.29815646 132.00280079 0.3359375 136.09765625 C-0.6540625 136.09765625 -1.6440625 136.09765625 -2.6640625 136.09765625 C-2.9940625 136.75765625 -3.3240625 137.41765625 -3.6640625 138.09765625 C-5.63147069 139.16034389 -7.63856659 140.15036204 -9.6640625 141.09765625 C-11.17033203 141.80535156 -11.17033203 141.80535156 -12.70703125 142.52734375 C-14.89238293 143.53179111 -17.07864845 144.53425165 -19.265625 145.53515625 C-21.45459891 146.54158103 -23.6374806 147.56141872 -25.8125 148.59765625 C-26.77414062 149.05140625 -27.73578125 149.50515625 -28.7265625 149.97265625 C-29.58378906 150.38257813 -30.44101562 150.7925 -31.32421875 151.21484375 C-33.6640625 152.09765625 -33.6640625 152.09765625 -37.6640625 152.09765625 C-37.9940625 152.75765625 -38.3240625 153.41765625 -38.6640625 154.09765625 C-41.83452188 155.33827079 -44.24644545 156.09765625 -47.6640625 156.09765625 C-47.9940625 156.75765625 -48.3240625 157.41765625 -48.6640625 158.09765625 C-50.76116653 158.99889104 -52.89282534 159.82065207 -55.0390625 160.59765625 C-58.59539409 161.89086774 -61.50980888 162.9948205 -64.6640625 165.09765625 C-65.9840625 165.09765625 -67.3040625 165.09765625 -68.6640625 165.09765625 C-68.9940625 165.75765625 -69.3240625 166.41765625 -69.6640625 167.09765625 C-73.64855937 169.05231509 -76.18680966 170.09765625 -80.6640625 170.09765625 C-80.9940625 170.75765625 -81.3240625 171.41765625 -81.6640625 172.09765625 C-83.77188615 173.35480176 -85.86731528 174.5251375 -88.0390625 175.66015625 C-89.20179688 176.28019531 -90.36453125 176.90023437 -91.5625 177.5390625 C-94.6640625 179.09765625 -94.6640625 179.09765625 -97.6640625 180.09765625 C-98.87288346 182.09782091 -98.87288346 182.09782091 -99.6640625 184.09765625 C-99.1690625 184.55140625 -98.6740625 185.00515625 -98.1640625 185.47265625 C-96.6640625 187.09765625 -96.6640625 187.09765625 -96.6640625 189.09765625 C-75.96401274 187.21583354 -56.21415546 174.64568329 -38.4765625 164.59765625 C-34.25244964 162.25165909 -30.36093896 161.14140658 -25.6640625 160.09765625 C-25.3340625 159.43765625 -25.0040625 158.77765625 -24.6640625 158.09765625 C-11.18731504 150.11650293 8.42429645 144.87943941 23.9375 148.74609375 C26.0859375 149.53515625 26.0859375 149.53515625 29.3359375 151.09765625 C30.3259375 151.42765625 31.3159375 151.75765625 32.3359375 152.09765625 C32.3359375 152.75765625 32.3359375 153.41765625 32.3359375 154.09765625 C32.9134375 154.32453125 33.4909375 154.55140625 34.0859375 154.78515625 C37.78970885 156.94568954 39.72717029 159.84968347 41.5859375 163.66015625 C44.19199848 175.6046024 41.5669345 186.35633717 36.3359375 197.09765625 C35.6759375 197.09765625 35.0159375 197.09765625 34.3359375 197.09765625 C34.08585938 197.814375 33.83578125 198.53109375 33.578125 199.26953125 C32.2148092 202.37343264 30.56583147 204.69469555 28.4609375 207.34765625 C27.44386719 208.65476562 27.44386719 208.65476562 26.40625 209.98828125 C24.2942333 212.14014732 23.27722823 212.75472549 20.3359375 213.09765625 C20.3359375 213.75765625 20.3359375 214.41765625 20.3359375 215.09765625 C17.8609375 216.08765625 17.8609375 216.08765625 15.3359375 217.09765625 C15.3359375 217.75765625 15.3359375 218.41765625 15.3359375 219.09765625 C14.3459375 219.09765625 13.3559375 219.09765625 12.3359375 219.09765625 C12.3359375 219.75765625 12.3359375 220.41765625 12.3359375 221.09765625 C4.16989011 225.36721402 -3.70740269 228.91846893 -12.6640625 231.09765625 C-13.6540625 228.62265625 -13.6540625 228.62265625 -14.6640625 226.09765625 C-15.3240625 226.09765625 -15.9840625 226.09765625 -16.6640625 226.09765625 C-16.6640625 225.10765625 -16.6640625 224.11765625 -16.6640625 223.09765625 C-17.3240625 223.09765625 -17.9840625 223.09765625 -18.6640625 223.09765625 C-20.28515625 220.8671875 -20.28515625 220.8671875 -22.1015625 217.91015625 C-22.69839844 216.94722656 -23.29523438 215.98429688 -23.91015625 214.9921875 C-25.50208484 212.3649735 -27.08784589 209.73432441 -28.6640625 207.09765625 C-24.72285541 207.66068583 -21.9131902 208.77685075 -18.6640625 211.09765625 C-18.6640625 211.75765625 -18.6640625 212.41765625 -18.6640625 213.09765625 C-7.69339316 216.02316807 2.09190791 216.54097824 12.3359375 211.09765625 C17.4710868 207.90245224 21.31102558 202.69734691 22.9765625 196.84765625 C23.09515625 196.27015625 23.21375 195.69265625 23.3359375 195.09765625 C23.9959375 195.09765625 24.6559375 195.09765625 25.3359375 195.09765625 C25.1503125 194.37578125 24.9646875 193.65390625 24.7734375 192.91015625 C24.3128555 189.94927199 24.72570317 187.9962693 25.3359375 185.09765625 C25.0059375 184.10765625 24.6759375 183.11765625 24.3359375 182.09765625 C24.6659375 181.43765625 24.9959375 180.77765625 25.3359375 180.09765625 C24.6759375 180.09765625 24.0159375 180.09765625 23.3359375 180.09765625 C22.6759375 179.10765625 22.0159375 178.11765625 21.3359375 177.09765625 C10.44885231 173.46862785 0.25155692 177.620244 -9.6640625 182.09765625 C-10.77007813 182.65839844 -11.87609375 183.21914063 -13.015625 183.796875 C-15.6640625 185.09765625 -15.6640625 185.09765625 -17.6640625 185.09765625 C-17.9940625 185.75765625 -18.3240625 186.41765625 -18.6640625 187.09765625 C-19.6540625 187.42765625 -20.6440625 187.75765625 -21.6640625 188.09765625 C-21.9940625 188.75765625 -22.3240625 189.41765625 -22.6640625 190.09765625 C-24.625 191.38671875 -24.625 191.38671875 -27.0390625 192.72265625 C-27.83054687 193.16867187 -28.62203125 193.6146875 -29.4375 194.07421875 C-31.6640625 195.09765625 -31.6640625 195.09765625 -34.6640625 195.09765625 C-34.9940625 195.75765625 -35.3240625 196.41765625 -35.6640625 197.09765625 C-47.6151467 204.07061966 -61.07110632 209.5196818 -74.6640625 212.09765625 C-75.3240625 212.42765625 -75.9840625 212.75765625 -76.6640625 213.09765625 C-87.65537575 215.74232377 -97.40151397 213.73434445 -107.29296875 208.5703125 C-112.45084648 205.36682007 -115.54332822 201.48930347 -117.2890625 195.66015625 C-117.94877477 191.5123908 -117.39637989 188.77198417 -115.27734375 185.16015625 C-111.96818143 180.92955648 -108.01702017 177.23701804 -103.6640625 174.09765625 C-102.6740625 174.09765625 -101.6840625 174.09765625 -100.6640625 174.09765625 C-100.6640625 173.43765625 -100.6640625 172.77765625 -100.6640625 172.09765625 C-98.06345746 170.75695307 -95.45901334 169.42492271 -92.8515625 168.09765625 C-92.11357422 167.71609375 -91.37558594 167.33453125 -90.61523438 166.94140625 C-89.90302734 166.58046875 -89.19082031 166.21953125 -88.45703125 165.84765625 C-87.8024292 165.5125 -87.14782715 165.17734375 -86.47338867 164.83203125 C-84.6640625 164.09765625 -84.6640625 164.09765625 -81.6640625 164.09765625 C-81.3340625 163.43765625 -81.0040625 162.77765625 -80.6640625 162.09765625 C-78.73828125 161.02734375 -78.73828125 161.02734375 -76.3515625 159.97265625 C-75.18173828 159.44285156 -75.18173828 159.44285156 -73.98828125 158.90234375 C-71.6640625 158.09765625 -71.6640625 158.09765625 -67.6640625 158.09765625 C-67.6640625 157.43765625 -67.6640625 156.77765625 -67.6640625 156.09765625 C-67.03838379 155.86054932 -66.41270508 155.62344238 -65.76806641 155.37915039 C-62.94131981 154.30723505 -60.11518504 153.23371578 -57.2890625 152.16015625 C-56.30421875 151.78697266 -55.319375 151.41378906 -54.3046875 151.02929688 C-53.36367188 150.67158203 -52.42265625 150.31386719 -51.453125 149.9453125 C-50.14915771 149.45043335 -50.14915771 149.45043335 -48.81884766 148.94555664 C-46.66245767 148.13378873 -46.66245767 148.13378873 -44.6640625 147.09765625 C-44.0040625 147.42765625 -43.3440625 147.75765625 -42.6640625 148.09765625 C-42.3340625 147.43765625 -42.0040625 146.77765625 -41.6640625 146.09765625 C-39.66015625 145.1328125 -39.66015625 145.1328125 -37.1015625 144.16015625 C-36.19535156 143.80824219 -35.28914062 143.45632813 -34.35546875 143.09375 C-32.74727296 142.49855417 -31.13188561 141.92154708 -29.50390625 141.3828125 C-24.21036706 139.60426752 -19.7207289 136.98234427 -15.6640625 133.09765625 C-15.3340625 132.10765625 -15.0040625 131.11765625 -14.6640625 130.09765625 C-14.0040625 130.09765625 -13.3440625 130.09765625 -12.6640625 130.09765625 C-7.76685271 115.69985948 -5.22764985 102.46060777 -5.2265625 87.22265625 C-5.22449799 86.50065033 -5.22243347 85.77864441 -5.2203064 85.03475952 C-5.22778206 70.41741652 -6.72405462 56.20875068 -13.6640625 43.09765625 C-14.3515625 40.72265625 -14.3515625 40.72265625 -14.6640625 39.09765625 C-15.3240625 39.09765625 -15.9840625 39.09765625 -16.6640625 39.09765625 C-18.91093913 36.96600406 -21.0727299 34.85794103 -22.9765625 32.41015625 C-28.65496053 27.99362445 -37.87644058 28.3576867 -44.6640625 29.09765625 C-50.22555823 30.79267554 -53.69708007 33.89732192 -57.6640625 38.09765625 C-58.3240625 38.09765625 -58.9840625 38.09765625 -59.6640625 38.09765625 C-59.9940625 39.74765625 -60.3240625 41.39765625 -60.6640625 43.09765625 C-61.3240625 43.09765625 -61.9840625 43.09765625 -62.6640625 43.09765625 C-62.9321875 44.21140625 -63.2003125 45.32515625 -63.4765625 46.47265625 C-64.26608157 49.65872964 -65.17741198 52.77991983 -66.1640625 55.91015625 C-69.13091455 65.8297314 -69.98963047 75.27186996 -69.92480469 85.62280273 C-69.91405834 87.6609457 -69.92477553 89.69821126 -69.9375 91.73632812 C-69.92307473 99.10403371 -69.51989447 105.95783487 -67.6640625 113.09765625 C-65.6640625 120.87212434 -65.6640625 120.87212434 -65.6640625 125.09765625 C-64.6740625 125.59265625 -64.6740625 125.59265625 -63.6640625 126.09765625 C-62.68370821 127.67599791 -61.75309124 129.28550156 -60.8515625 130.91015625 C-58.54322789 134.86247552 -56.50431766 137.50288925 -52.6640625 140.09765625 C-51.6466752 141.07996123 -50.63810133 142.07235222 -49.6640625 143.09765625 C-51.51637737 146.80228599 -55.93053088 147.7510419 -59.6640625 149.09765625 C-65.42904905 150.90048773 -69.05119544 150.26192223 -74.4140625 147.47265625 C-78.39146051 145.07736649 -81.55058159 142.56696355 -84.6640625 139.09765625 C-85.69392259 138.22929093 -86.73615753 137.37543077 -87.7890625 136.53515625 C-90.20909235 134.48339181 -92.00219663 132.77510682 -93.6640625 130.09765625 C-93.6640625 129.43765625 -93.6640625 128.77765625 -93.6640625 128.09765625 C-94.3240625 128.09765625 -94.9840625 128.09765625 -95.6640625 128.09765625 C-95.7878125 127.29328125 -95.9115625 126.48890625 -96.0390625 125.66015625 C-96.2453125 124.81453125 -96.4515625 123.96890625 -96.6640625 123.09765625 C-97.3240625 122.76765625 -97.9840625 122.43765625 -98.6640625 122.09765625 C-107.11308124 107.17942184 -109.13173001 86.50392417 -104.6640625 70.09765625 C-102.89969599 64.33454104 -100.94109556 58.67842032 -98.6640625 53.09765625 C-98.0040625 53.09765625 -97.3440625 53.09765625 -96.6640625 53.09765625 C-96.6640625 52.10765625 -96.6640625 51.11765625 -96.6640625 50.09765625 C-96.0040625 50.09765625 -95.3440625 50.09765625 -94.6640625 50.09765625 C-94.51904297 49.2159375 -94.51904297 49.2159375 -94.37109375 48.31640625 C-93.51823917 45.64004492 -92.38495424 44.51348572 -90.3515625 42.59765625 C-89.71863281 41.99566406 -89.08570313 41.39367187 -88.43359375 40.7734375 C-87.84964844 40.22042969 -87.26570312 39.66742187 -86.6640625 39.09765625 C-85.9628125 38.33453125 -85.2615625 37.57140625 -84.5390625 36.78515625 C-82.38957802 34.85062022 -80.39103694 34.00664773 -77.6640625 33.09765625 C-77.6640625 32.43765625 -77.6640625 31.77765625 -77.6640625 31.09765625 C-75.79168879 30.13420181 -73.9160326 29.17712523 -72.0390625 28.22265625 C-70.99492188 27.68898438 -69.95078125 27.1553125 -68.875 26.60546875 C-63.48981831 24.0766608 -58.54441863 22.87430706 -52.6640625 22.09765625 C-51.6740625 21.76765625 -50.6840625 21.43765625 -49.6640625 21.09765625 C-47.6640625 21.09765625 -45.6640625 21.09765625 -43.6640625 21.09765625 C-42.6740625 20.60265625 -42.6740625 20.60265625 -41.6640625 20.09765625 C-40.14561048 20.00292713 -38.62295866 19.96777215 -37.1015625 19.97265625 C-35.89306641 19.96878906 -35.89306641 19.96878906 -34.66015625 19.96484375 C-32.6640625 20.09765625 -32.6640625 20.09765625 -31.6640625 21.09765625 C-29.66533744 21.09765625 -27.66648916 21.09500762 -25.66796875 21.06640625 C-23.53090083 21.09973285 -21.70320818 21.47022681 -19.6640625 22.09765625 C-19.0040625 22.09765625 -18.3440625 22.09765625 -17.6640625 22.09765625 C-17.6640625 22.75765625 -17.6640625 23.41765625 -17.6640625 24.09765625 C-15.9315625 24.25234375 -15.9315625 24.25234375 -14.1640625 24.41015625 C-9.65234731 24.95800738 -5.85800501 26.37514415 -1.6640625 28.09765625 C-2.27314453 27.0921875 -2.27314453 27.0921875 -2.89453125 26.06640625 C-4.96220333 22.59746412 -6.99967381 19.11909819 -8.9765625 15.59765625 C-9.36134766 14.94667969 -9.74613281 14.29570313 -10.14257812 13.625 C-12.83724379 8.76576683 -12.83724379 8.76576683 -11.89453125 5.12890625 C-11.28544922 4.1234375 -11.28544922 4.1234375 -10.6640625 3.09765625 C-10.0040625 3.09765625 -9.3440625 3.09765625 -8.6640625 3.09765625 C-8.3340625 2.43765625 -8.0040625 1.77765625 -7.6640625 1.09765625 C-5.00228029 -0.23323485 -2.97666854 -0.01503368 0 0 Z " fill="#020202" transform="translate(678.6640625,549.90234375)"/>
<path d="M0 0 C0.9480098 -0.00960754 1.89601959 -0.01921509 2.87275696 -0.02911377 C3.90498886 -0.03336365 4.93722076 -0.03761353 6.00073242 -0.04199219 C7.58249519 -0.0505423 7.58249519 -0.0505423 9.19621277 -0.05926514 C11.4332071 -0.0687325 13.6702155 -0.07525597 15.90722656 -0.07910156 C19.33122132 -0.08879646 22.75461337 -0.11979957 26.1784668 -0.15136719 C28.34838509 -0.15789793 30.5183077 -0.16314812 32.68823242 -0.16699219 C34.22747124 -0.18551239 34.22747124 -0.18551239 35.79780579 -0.20440674 C36.75527206 -0.20140564 37.71273834 -0.19840454 38.69921875 -0.1953125 C39.54003494 -0.19895813 40.38085114 -0.20260376 41.24714661 -0.20635986 C44.03867024 0.24033733 45.43569182 1.32574764 47.54370117 3.16113281 C49.70181505 2.21383744 49.70181505 2.21383744 51.54370117 0.16113281 C53.69848633 -0.06591797 53.69848633 -0.06591797 56.33276367 -0.03417969 C57.2737793 -0.02773438 58.21479492 -0.02128906 59.18432617 -0.01464844 C60.16916992 0.00210938 61.15401367 0.01886719 62.16870117 0.03613281 C63.1612793 0.04515625 64.15385742 0.05417969 65.17651367 0.06347656 C67.63248251 0.08709165 70.08797285 0.12002482 72.54370117 0.16113281 C72.54370117 1.81113281 72.54370117 3.46113281 72.54370117 5.16113281 C71.89143555 5.25910156 71.23916992 5.35707031 70.56713867 5.45800781 C65.08690043 6.39562969 60.74028717 7.27161408 56.54370117 11.16113281 C53.13561635 17.5613551 52.41781189 24.27124113 52.43017578 31.42993164 C52.43002975 32.14267242 52.42988373 32.85541321 52.42973328 33.5897522 C52.43042686 35.93258771 52.43819317 38.27534253 52.44604492 40.61816406 C52.44791107 42.24769548 52.44933405 43.87722746 52.45033264 45.50675964 C52.45414229 49.78601645 52.46395929 54.06523908 52.47503662 58.34448242 C52.48528415 62.71500181 52.48983741 67.08552674 52.49487305 71.45605469 C52.50558299 80.02442971 52.52264072 88.592777 52.54370117 97.16113281 C53.32358398 96.36835937 54.1034668 95.57558594 54.90698242 94.75878906 C57.54370117 92.16113281 57.54370117 92.16113281 59.73120117 90.59863281 C61.65683376 89.2852812 61.65683376 89.2852812 62.48120117 87.22363281 C63.54370117 85.16113281 63.54370117 85.16113281 65.98120117 83.22363281 C68.64781587 81.07733317 69.84043043 79.08102551 71.54370117 76.16113281 C72.20370117 76.16113281 72.86370117 76.16113281 73.54370117 76.16113281 C73.79120117 75.60425781 74.03870117 75.04738281 74.29370117 74.47363281 C75.77294935 71.73702368 77.47837557 69.48462412 79.54370117 67.16113281 C80.20370117 67.16113281 80.86370117 67.16113281 81.54370117 67.16113281 C81.77057617 66.62488281 81.99745117 66.08863281 82.23120117 65.53613281 C85.10801502 60.33046967 89.37447644 56.33035755 93.54370117 52.16113281 C95.05498506 50.36012093 96.54714279 48.54741489 98.01635742 46.71191406 C99.71573587 44.9864582 101.37825247 44.2055904 103.54370117 43.16113281 C104.5939122 41.31141585 104.5939122 41.31141585 105.54370117 39.16113281 C107.54370117 36.41113281 107.54370117 36.41113281 109.54370117 34.16113281 C110.20370117 34.16113281 110.86370117 34.16113281 111.54370117 34.16113281 C111.87370117 32.84113281 112.20370117 31.52113281 112.54370117 30.16113281 C113.20370117 30.16113281 113.86370117 30.16113281 114.54370117 30.16113281 C115.20370117 28.84113281 115.86370117 27.52113281 116.54370117 26.16113281 C117.20370117 26.16113281 117.86370117 26.16113281 118.54370117 26.16113281 C118.54370117 25.17113281 118.54370117 24.18113281 118.54370117 23.16113281 C119.20370117 23.16113281 119.86370117 23.16113281 120.54370117 23.16113281 C120.87370117 21.84113281 121.20370117 20.52113281 121.54370117 19.16113281 C122.20370117 19.16113281 122.86370117 19.16113281 123.54370117 19.16113281 C125.03510138 15.53916087 126.33112737 11.88546664 127.54370117 8.16113281 C124.97824177 5.59567341 123.0668345 5.62067194 119.54370117 5.16113281 C119.54370117 3.51113281 119.54370117 1.86113281 119.54370117 0.16113281 C135.38370117 0.16113281 151.22370117 0.16113281 167.54370117 0.16113281 C167.54370117 1.81113281 167.54370117 3.46113281 167.54370117 5.16113281 C166.45831055 5.35449219 165.37291992 5.54785156 164.25463867 5.74707031 C162.80928449 6.00986198 161.36397429 6.27289568 159.91870117 6.53613281 C159.20584961 6.66246094 158.49299805 6.78878906 157.75854492 6.91894531 C153.55738783 7.68979982 149.52322068 8.55708033 145.54370117 10.16113281 C145.21370117 10.82113281 144.88370117 11.48113281 144.54370117 12.16113281 C143.55370117 12.49113281 142.56370117 12.82113281 141.54370117 13.16113281 C140.88370117 13.82113281 140.22370117 14.48113281 139.54370117 15.16113281 C137.41870117 15.78613281 137.41870117 15.78613281 135.54370117 16.16113281 C135.54370117 16.82113281 135.54370117 17.48113281 135.54370117 18.16113281 C133.9197964 19.54622806 132.24229784 20.86872231 130.54370117 22.16113281 C125.59632567 26.08711466 121.82421601 30.20625079 118.10229492 35.29003906 C117.58795898 35.9075 117.07362305 36.52496094 116.54370117 37.16113281 C115.88370117 37.16113281 115.22370117 37.16113281 114.54370117 37.16113281 C114.29620117 37.71800781 114.04870117 38.27488281 113.79370117 38.84863281 C112.31445299 41.58524195 110.60902678 43.83764151 108.54370117 46.16113281 C107.88370117 46.16113281 107.22370117 46.16113281 106.54370117 46.16113281 C106.29620117 46.71800781 106.04870117 47.27488281 105.79370117 47.84863281 C104.31445299 50.58524195 102.60902678 52.83764151 100.54370117 55.16113281 C99.88370117 55.16113281 99.22370117 55.16113281 98.54370117 55.16113281 C98.29620117 55.71800781 98.04870117 56.27488281 97.79370117 56.84863281 C96.31445299 59.58524195 94.60902678 61.83764151 92.54370117 64.16113281 C91.88370117 64.16113281 91.22370117 64.16113281 90.54370117 64.16113281 C88.87505865 67.81440665 88.34807547 69.53378142 89.56323242 73.43066406 C90.15491211 74.59984375 90.7465918 75.76902344 91.35620117 76.97363281 C91.67661377 77.62106445 91.99702637 78.26849609 92.32714844 78.93554688 C94.41525973 83.11077107 96.64041674 87.21285339 98.85522461 91.32177734 C99.22679687 92.01126465 99.59836914 92.70075195 99.98120117 93.41113281 C100.35535156 94.10319824 100.72950195 94.79526367 101.11499023 95.50830078 C104.08197687 101.08252374 106.65890164 106.77892255 109.10620117 112.59863281 C109.45287842 113.42202148 109.79955566 114.24541016 110.15673828 115.09375 C112.54370117 120.88603178 112.54370117 120.88603178 112.54370117 123.16113281 C113.20370117 123.49113281 113.86370117 123.82113281 114.54370117 124.16113281 C115.25755458 125.75880474 115.96180004 127.36154134 116.61401367 128.98535156 C118.07080579 132.39473479 119.8291593 135.64737185 121.55541992 138.92675781 C122.54370117 141.16113281 122.54370117 141.16113281 122.54370117 144.16113281 C123.20370117 144.49113281 123.86370117 144.82113281 124.54370117 145.16113281 C125.88838525 147.60115558 127.14195157 150.03216856 128.35620117 152.53613281 C128.71004883 153.25623535 129.06389648 153.97633789 129.4284668 154.71826172 C137.54370117 171.3145812 137.54370117 171.3145812 137.54370117 174.16113281 C138.20370117 174.16113281 138.86370117 174.16113281 139.54370117 174.16113281 C139.87370117 175.15113281 140.20370117 176.14113281 140.54370117 177.16113281 C142.54035715 178.83180414 144.54021151 180.49866267 146.54370117 182.16113281 C146.54370117 182.82113281 146.54370117 183.48113281 146.54370117 184.16113281 C147.28620117 184.44988281 148.02870117 184.73863281 148.79370117 185.03613281 C151.11109914 185.98415925 153.32287232 187.00959193 155.54370117 188.16113281 C155.54370117 188.82113281 155.54370117 189.48113281 155.54370117 190.16113281 C157.85370117 190.16113281 160.16370117 190.16113281 162.54370117 190.16113281 C162.54370117 190.82113281 162.54370117 191.48113281 162.54370117 192.16113281 C164.52370117 192.16113281 166.50370117 192.16113281 168.54370117 192.16113281 C168.54370117 193.48113281 168.54370117 194.80113281 168.54370117 196.16113281 C143.13370117 196.16113281 117.72370117 196.16113281 91.54370117 196.16113281 C91.54370117 194.84113281 91.54370117 193.52113281 91.54370117 192.16113281 C94.51370117 191.17113281 97.48370117 190.18113281 100.54370117 189.16113281 C102.17350057 182.71019909 100.64884493 179.17455388 97.60620117 173.41113281 C96.84219571 171.91883501 96.08286406 170.42413254 95.32885742 168.92675781 C94.98733643 168.27481445 94.64581543 167.62287109 94.29394531 166.95117188 C93.54370117 165.16113281 93.54370117 165.16113281 93.54370117 162.16113281 C92.88370117 161.83113281 92.22370117 161.50113281 91.54370117 161.16113281 C90.28642661 158.84557679 89.11810594 156.53514318 87.98120117 154.16113281 C85.11207269 148.28458069 82.14323939 142.48183533 79.04370117 136.72363281 C74.87038805 128.93350844 71.09487993 120.98672708 67.39160156 112.96484375 C66.15745041 110.33947413 64.84250237 107.75497058 63.54370117 105.16113281 C62.85842072 103.50203278 62.18478254 101.83780717 61.54370117 100.16113281 C57.78960657 101.29916009 57.78960657 101.29916009 55.29370117 104.16113281 C55.04620117 104.82113281 54.79870117 105.48113281 54.54370117 106.16113281 C54.21370117 106.82113281 53.88370117 107.48113281 53.54370117 108.16113281 C53.40801224 110.15944592 53.33497421 112.16212404 53.29077148 114.16455078 C53.26114319 115.4270163 53.23151489 116.68948181 53.20098877 117.99020386 C53.17401712 119.37789811 53.1476452 120.76560413 53.12182617 122.15332031 C53.10796623 122.85362492 53.09410629 123.55392952 53.07982635 124.27545547 C53.00648156 127.99149735 52.93897645 131.70759289 52.8762207 135.42382812 C52.81078376 139.23439604 52.72609881 143.04426872 52.63664627 146.85433769 C52.57092668 149.80561697 52.51976564 152.75702828 52.47231293 155.7086525 C52.44732634 157.11113091 52.41708352 158.51352724 52.38114166 159.91576767 C52.17047078 168.36871006 51.95342694 177.30713219 55.54370117 185.16113281 C57.5447954 186.31149392 57.5447954 186.31149392 59.54370117 187.16113281 C59.87370117 188.15113281 60.20370117 189.14113281 60.54370117 190.16113281 C61.40995117 190.11988281 62.27620117 190.07863281 63.16870117 190.03613281 C66.66728586 190.16571002 69.28921714 190.92132937 72.54370117 192.16113281 C72.54370117 193.48113281 72.54370117 194.80113281 72.54370117 196.16113281 C47.13370117 196.16113281 21.72370117 196.16113281 -4.45629883 196.16113281 C-4.78629883 195.50113281 -5.11629883 194.84113281 -5.45629883 194.16113281 C-4.45629883 192.16113281 -4.45629883 192.16113281 -2.67895508 191.49316406 C-1.60967773 191.23599609 -1.60967773 191.23599609 -0.51879883 190.97363281 C0.19147461 190.79445313 0.90174805 190.61527344 1.63354492 190.43066406 C3.54370117 190.16113281 3.54370117 190.16113281 5.54370117 191.16113281 C6.03870117 190.17113281 6.03870117 190.17113281 6.54370117 189.16113281 C7.96682617 188.17113281 7.96682617 188.17113281 9.41870117 187.16113281 C13.63531775 183.66177237 14.5357192 179.40869352 15.54370117 174.16113281 C15.95432801 169.17895475 15.95506461 164.21089952 15.93188477 159.21557617 C15.93595763 157.731182 15.94130349 156.24679087 15.94781494 154.7624054 C15.96140832 150.75831208 15.95622349 146.75445251 15.94667768 142.75035548 C15.93904088 138.5451986 15.94613767 134.34006069 15.95083618 130.13490295 C15.95628148 123.07647131 15.94913377 116.01813408 15.93481445 108.9597168 C15.91848395 100.81622854 15.92378426 92.6729656 15.94029367 84.52948278 C15.953936 77.51771403 15.95581499 70.50601284 15.94797766 63.4942351 C15.94331703 59.31506285 15.94263187 55.1359963 15.95258713 50.95683098 C15.96129489 47.02750991 15.95516593 43.09847763 15.93790436 39.16918755 C15.93396002 37.73295062 15.93503811 36.29668911 15.94169235 34.86046219 C15.97954076 25.85685744 15.92664724 17.73805985 10.41870117 10.28613281 C6.68652344 7.52756666 2.97376299 6.38894021 -1.45629883 5.16113281 C-2.44629883 4.83113281 -3.43629883 4.50113281 -4.45629883 4.16113281 C-4.78629883 3.17113281 -5.11629883 2.18113281 -5.45629883 1.16113281 C-3.86449736 -0.43066866 -2.20635766 0.01796814 0 0 Z " fill="#020202" transform="translate(212.456298828125,517.8388671875)"/>
<path d="M0 0 C2.89589652 -0.02706445 5.79153795 -0.04687029 8.6875 -0.0625 C9.91243164 -0.07506836 9.91243164 -0.07506836 11.16210938 -0.08789062 C15.25229443 -0.10445008 19.01151266 -0.01653483 23 1 C23.75539063 1.15597656 24.51078125 1.31195312 25.2890625 1.47265625 C32.55323167 3.3069197 38.55352114 6.83719191 44 12 C45.3125 14.7578125 45.3125 14.7578125 46 17 C46.66 17 47.32 17 48 17 C50.05200144 20.91745729 51.8339219 24.7243803 53 29 C52.67 29.66 52.34 30.32 52 31 C52.66 31 53.32 31 54 31 C54.74727467 36.31546668 55.119095 41.4091262 55.09765625 46.78955078 C55.09546585 47.88875351 55.09546585 47.88875351 55.0932312 49.01016235 C55.0894539 50.58589489 55.08336829 52.16162331 55.07516479 53.73733902 C55.06229652 56.23480328 55.05585937 58.73221385 55.05102539 61.22970581 C55.03965141 66.52816145 55.02040165 71.82657244 55 77.125 C54.97635185 83.2754676 54.9559836 89.42590974 54.94406128 95.5764122 C54.93760523 98.030316 54.92510071 100.48414082 54.91235352 102.9380188 C54.90871958 104.44842461 54.90536803 105.95883113 54.90234375 107.46923828 C54.89448853 109.43825607 54.89448853 109.43825607 54.88647461 111.447052 C54.91663393 114.97128763 54.91663393 114.97128763 55.56860352 118.28317261 C56 121 56 121 55 124 C55.66 124 56.32 124 57 124 C57.391875 125.051875 57.78375 126.10375 58.1875 127.1875 C59.76960661 130.92702472 62.0083228 133.24450784 65 136 C65.33 136.66 65.66 137.32 66 138 C67.32 137.67 68.64 137.34 70 137 C70 137.66 70 138.32 70 139 C71.98 139 73.96 139 76 139 C76 140.32 76 141.64 76 143 C69.41647559 143.10161289 62.83315423 143.1715547 56.24902344 143.21972656 C54.01033979 143.23981316 51.77170842 143.2670878 49.53320312 143.30175781 C46.31106651 143.35040464 43.08962499 143.37299874 39.8671875 143.390625 C38.87008759 143.41127014 37.87298767 143.43191528 36.84567261 143.45318604 C30.93831265 143.45508366 27.44604743 143.03523665 23 139 C22.67 138.01 22.34 137.02 22 136 C21.34 135.67 20.68 135.34 20 135 C20 134.34 20 133.68 20 133 C18.35 133.33 16.7 133.66 15 134 C14.67 134.99 14.34 135.98 14 137 C13.01 137 12.02 137 11 137 C11 137.66 11 138.32 11 139 C1.58997722 143.59225513 1.58997722 143.59225513 -3 143 C-3.33 143.66 -3.66 144.32 -4 145 C-5.8125 145.37890625 -5.8125 145.37890625 -8 145.5625 C-10.78932058 145.62665408 -10.78932058 145.62665408 -13 147 C-28.12451818 147.89575734 -42.40325627 146.1138247 -54.8671875 136.5703125 C-56.25 135.25 -56.25 135.25 -58 133 C-58 132.34 -58 131.68 -58 131 C-58.66 131 -59.32 131 -60 131 C-60.12375 130.195625 -60.2475 129.39125 -60.375 128.5625 C-60.58125 127.716875 -60.7875 126.87125 -61 126 C-61.66 125.67 -62.32 125.34 -63 125 C-64 122 -64 122 -63 119 C-63.66 119 -64.32 119 -65 119 C-65.39465033 111.99861082 -64.62184532 106.49706059 -62 100 C-61.608125 98.989375 -61.21625 97.97875 -60.8125 96.9375 C-60.4103125 95.9784375 -60.4103125 95.9784375 -60 95 C-59.34 95 -58.68 95 -58 95 C-57.731875 94.401875 -57.46375 93.80375 -57.1875 93.1875 C-56.00082594 91.00152146 -54.90400887 89.58667406 -53 88 C-52.34 88 -51.68 88 -51 88 C-51 87.34 -51 86.68 -51 86 C-35.74310621 78.01209749 -35.74310621 78.01209749 -28 76 C-27.01 76.495 -27.01 76.495 -26 77 C-25.67 76.34 -25.34 75.68 -25 75 C-24.01 75.495 -24.01 75.495 -23 76 C-22.67 75.34 -22.34 74.68 -22 74 C-19.59336972 72.91995129 -17.21168876 71.93646164 -14.75 71 C-13.74646484 70.60941406 -13.74646484 70.60941406 -12.72265625 70.2109375 C-11.41705094 69.7030596 -10.11043667 69.19776637 -8.80273438 68.6953125 C-6.52681434 67.81749285 -4.26241839 66.91198261 -2 66 C-2 65.34 -2 64.68 -2 64 C-1.01 64 -0.02 64 1 64 C1.268125 63.401875 1.53625 62.80375 1.8125 62.1875 C2.99917406 60.00152146 4.09599113 58.58667406 6 57 C6.66 57 7.32 57 8 57 C9.31468352 54.47176247 10.42336465 51.95922857 11.5 49.3125 C13 46 13 46 15 45 C14.67 44.01 14.34 43.02 14 42 C14.66 42 15.32 42 16 42 C15.814375 41.443125 15.62875 40.88625 15.4375 40.3125 C14.90348021 37.48982397 15.31533907 35.80088561 16 33 C16.35637289 31.39632201 16.71038921 29.79211918 17.0625 28.1875 C17.37448212 26.79155082 17.68680856 25.39567835 18 24 C17.34 23.67 16.68 23.34 16 23 C16.33 22.34 16.66 21.68 17 21 C16.34 20.67 15.68 20.34 15 20 C14.401875 18.88625 13.80375 17.7725 13.1875 16.625 C11.33398768 13.2176033 9.48547696 11.78983952 6 10 C5.505 9.01 5.505 9.01 5 8 C4.34 8.33 3.68 8.66 3 9 C0.69181336 9.06890109 -1.59809017 8.9974522 -3.90625 8.9375 C-6.06025522 8.85499134 -6.06025522 8.85499134 -8 10 C-8.66 9.67 -9.32 9.34 -10 9 C-10.33 9.66 -10.66 10.32 -11 11 C-11.99 11 -12.98 11 -14 11 C-14 11.66 -14 12.32 -14 13 C-15.50390625 14.0078125 -15.50390625 14.0078125 -17.5625 15.125 C-21.77263409 17.61518588 -24.52891658 20.61893923 -27.5546875 24.42578125 C-28.27011719 25.20501953 -28.27011719 25.20501953 -29 26 C-29.66 26 -30.32 26 -31 26 C-31.33 27.32 -31.66 28.64 -32 30 C-32.66 30 -33.32 30 -34 30 C-34.38671875 31.28970703 -34.38671875 31.28970703 -34.78125 32.60546875 C-36.04208635 36.11722128 -37.61100831 39.09881286 -39.5 42.3125 C-40.1084375 43.36050781 -40.716875 44.40851562 -41.34375 45.48828125 C-43 48 -43 48 -45 49 C-45.19631493 50.99586842 -45.39206076 52.99179896 -45.58203125 54.98828125 C-46.18373778 57.88434541 -47.71279403 59.2292599 -50 61 C-51.91072251 55.6050188 -51.95210617 51.64986077 -51 46 C-50.82444633 44.45932002 -50.65788263 42.91759099 -50.5 41.375 C-50.11941185 37.89023976 -49.57635269 34.45811615 -49 31 C-48.84777007 29.64653749 -48.70264829 28.29226684 -48.5625 26.9375 C-48.01517876 21.93457845 -47.28323098 16.97080257 -46.5 12 C-46.36980469 11.14277344 -46.23960937 10.28554688 -46.10546875 9.40234375 C-45.91404297 8.18224609 -45.91404297 8.18224609 -45.71875 6.9375 C-45.60466797 6.20402344 -45.49058594 5.47054687 -45.37304688 4.71484375 C-45 3 -45 3 -44 2 C-41.30917128 2.17635452 -38.67148554 2.61835921 -36 3 C-36 3.66 -36 4.32 -36 5 C-23.65653781 8.88474444 -17.15429673 7.22451594 -5.6015625 1.92578125 C-3 1 -3 1 0 2 C0 1.34 0 0.68 0 0 Z M19 53 C16.71307976 56.23764755 16.71307976 56.23764755 16 60 C15.34 60 14.68 60 14 60 C13.54625 60.78375 13.0925 61.5675 12.625 62.375 C10.92348887 65.1235949 9.95480916 65.87921032 7 67 C7 67.66 7 68.32 7 69 C5.68 69.33 4.36 69.66 3 70 C3 70.66 3 71.32 3 72 C1.35 72.33 -0.3 72.66 -2 73 C-2 73.66 -2 74.32 -2 75 C-2.804375 75.20625 -3.60875 75.4125 -4.4375 75.625 C-9.05469793 77.40707639 -13.16242583 79.86171712 -17 83 C-17 83.66 -17 84.32 -17 85 C-18.485 85.495 -18.485 85.495 -20 86 C-20 86.66 -20 87.32 -20 88 C-20.66 88 -21.32 88 -22 88 C-23.03572896 89.74122549 -24.0531252 91.49336595 -25.0625 93.25 C-25.91521484 94.71179688 -25.91521484 94.71179688 -26.78515625 96.203125 C-28.22561487 98.86019275 -28.22561487 98.86019275 -27.68359375 101.359375 C-27.34521484 102.17148437 -27.34521484 102.17148437 -27 103 C-27.66 103 -28.32 103 -29 103 C-29 109.27 -29 115.54 -29 122 C-28.34 122 -27.68 122 -27 122 C-27.33 122.99 -27.66 123.98 -28 125 C-27.34 125 -26.68 125 -26 125 C-25.938125 125.556875 -25.87625 126.11375 -25.8125 126.6875 C-24.20543629 131.26145057 -20.81993082 133.55135861 -16.6875 135.8125 C-8.28814634 138.5173766 -2.72838639 136.55895441 5 133 C6.093125 132.525625 7.18625 132.05125 8.3125 131.5625 C14.21121265 128.1330159 16.67229184 124.16842662 19 118 C19.495 117.01 19.495 117.01 20 116 C20.09144783 113.9983125 20.11751697 111.99351744 20.11352539 109.98974609 C20.11344986 108.72858978 20.11337433 107.46743347 20.11329651 106.1680603 C20.10818949 104.78651897 20.10297349 103.40497804 20.09765625 102.0234375 C20.09579144 100.6138209 20.09436783 99.20420366 20.09336853 97.79458618 C20.08954833 94.08246068 20.07972228 90.37037422 20.06866455 86.65826416 C20.05843975 82.87113981 20.05386862 79.08400917 20.04882812 75.296875 C20.03809958 67.86456552 20.02102911 60.43228823 20 53 C19.67 53 19.34 53 19 53 Z " fill="#020202" transform="translate(772,571)"/>
<path d="M0 0 C2.33203125 1.02734375 2.33203125 1.02734375 4 2 C4 2.66 4 3.32 4 4 C4.5775 4.20625 5.155 4.4125 5.75 4.625 C8.87877139 6.53702696 10.24731098 8.81919401 12 12 C11.67 12.99 11.34 13.98 11 15 C11.66 15 12.32 15 13 15 C13 16.98 13 18.96 13 21 C12.34 21 11.68 21 11 21 C10.9071875 22.299375 10.9071875 22.299375 10.8125 23.625 C9.54609881 28.88543573 6.66143436 31.77370321 2.375 34.9375 C-3.79892191 36.88114208 -9.69888854 36.17147492 -15.4375 33.25 C-18.01693071 30.98513401 -20.09492921 28.85760619 -22 26 C-22 25.01 -22 24.02 -22 23 C-22.66 22.67 -23.32 22.34 -24 22 C-24.64635254 16.82917965 -24.54967178 13.07567112 -21.4375 8.75 C-20.33183018 7.46433742 -19.18580043 6.21215155 -18 5 C-17.22269531 4.20335937 -17.22269531 4.20335937 -16.4296875 3.390625 C-11.55181507 -0.803874 -6.20155141 -0.90221651 0 0 Z " fill="#ED3F33" transform="translate(539,525)"/>
<path d="M0 0 C2.475 0.495 2.475 0.495 5 1 C6.91665101 4.52026733 7.80496831 8.14934233 9 12 C10.65 8.04 12.3 4.08 14 0 C15.32 0 16.64 0 18 0 C18 5.94 18 11.88 18 18 C17.01 18 16.02 18 15 18 C14.67 15.69 14.34 13.38 14 11 C13.01 13.31 12.02 15.62 11 18 C9.109375 17.75390625 9.109375 17.75390625 7 17 C5.55036313 14.44149911 4.89599095 11.8223715 4 9 C3.67 11.97 3.34 14.94 3 18 C2.01 18 1.02 18 0 18 C0 12.06 0 6.12 0 0 Z " fill="#000000" transform="translate(846,566)"/>
<path d="M0 0 C3.08333976 3.15854317 3.89212937 5.13703499 4.4375 9.5 C3.95697283 13.34421733 3.11101379 15.75808597 1 19 C-2.15515999 21.39356965 -5.13146779 21.32237768 -9 21 C-12.34265205 19.79293121 -12.94704566 19.07943151 -15 16 C-16.20932963 10.75957162 -16.10694211 6.98004499 -14 2 C-9.97946046 -1.89870501 -5.08788405 -1.69912546 0 0 Z M-10.25 3.5 C-12.38509871 6.55014102 -12.58777113 8.4347481 -12.3828125 12.08984375 C-12.07451049 14.22165519 -12.07451049 14.22165519 -10.375 16.5625 C-8.01693777 18.27899482 -8.01693777 18.27899482 -4.875 17.9375 C-1.70825068 17.23305313 -1.70825068 17.23305313 0 14 C0.63284577 8.36361144 0.63284577 8.36361144 -1.75 3.5 C-4.95865434 1.36089711 -7.04134566 1.36089711 -10.25 3.5 Z " fill="#000000" transform="translate(773,807)"/>
<path d="M0 0 C2.79563494 2.18195898 3.78900222 3.64568869 4.3359375 7.15625 C4.53990293 11.86314458 4.14864753 15.28909398 1 19 C-1.59144615 21.11154871 -3.77388571 21.1350172 -7 20.9375 C-9.98307709 20.43661019 -11.02243866 19.98261004 -13.5 18.0625 C-15.64610042 13.68087831 -15.80250831 9.79144666 -15 5 C-11.02385153 -1.49437584 -7.00609364 -1.76707868 0 0 Z M-9.8125 4.0625 C-12.18054719 6.8120424 -12.18054719 6.8120424 -12.625 10 C-11.78156913 14.04846818 -10.30713322 15.57476897 -7 18 C-3.55383944 17.91985673 -2.4443896 17.4443896 0 15 C0.94082291 11.16433738 1.32826926 8.83891033 -0.125 5.125 C-1.86293009 2.8737698 -1.86293009 2.8737698 -4.375 1.875 C-7.22742371 1.76863407 -7.22742371 1.76863407 -9.8125 4.0625 Z " fill="#000000" transform="translate(660,807)"/>
<path d="M0 0 C10.95652174 -0.60200669 10.95652174 -0.60200669 15.25 1.875 C17.74109295 6.32338027 17.96315731 10.02096645 17 15 C15.25 18.125 15.25 18.125 12 20 C7.90366586 20.39951243 4.13587286 20.22724576 0 20 C0 13.4 0 6.8 0 0 Z M4 2 C4 7.28 4 12.56 4 18 C5.918125 17.5978125 5.918125 17.5978125 7.875 17.1875 C8.59429687 17.03667969 9.31359375 16.88585937 10.0546875 16.73046875 C12.37046549 16.07691162 12.37046549 16.07691162 14 13 C14.34506219 9.75641537 14.30533635 7.66455559 12.9375 4.6875 C10.53522754 2.28653664 10.53522754 2.28653664 4 2 Z " fill="#000000" transform="translate(427,807)"/>
<path d="M0 0 C8.30078125 -0.390625 8.30078125 -0.390625 11 0 C12.8671875 1.8203125 12.8671875 1.8203125 14 4 C13.77962372 7.67293796 13.63033454 9.36966546 11 12 C12.32 14.64 13.64 17.28 15 20 C12.6875 19.8125 12.6875 19.8125 10 19 C7 14.96551724 7 14.96551724 7 12 C5.68 12 4.36 12 3 12 C3 14.64 3 17.28 3 20 C2.01 20 1.02 20 0 20 C0 13.4 0 6.8 0 0 Z M3 3 C3 4.98 3 6.96 3 9 C4.98 9 6.96 9 9 9 C9.38218767 7.34385343 9.71395102 5.67542976 10 4 C8.87465895 2.64381501 8.87465895 2.64381501 5.9375 2.9375 C4.968125 2.958125 3.99875 2.97875 3 3 Z " fill="#000000" transform="translate(678,807)"/>
<path d="M0 0 C8.3984375 -0.1953125 8.3984375 -0.1953125 11 0 C13 2 13 2 13.25 5.375 C13 9 13 9 11.75 11 C10.74753718 12.97630683 10.74753718 12.97630683 11.7578125 14.796875 C12.77245343 16.57072278 13.88167719 18.28962394 15 20 C12.75 19.875 12.75 19.875 10 19 C8.61061923 17.03852126 7.2739589 15.03833424 6 13 C5.01 12.67 4.02 12.34 3 12 C3 14.64 3 17.28 3 20 C2.01 20 1.02 20 0 20 C0 13.4 0 6.8 0 0 Z M3 3 C3 4.98 3 6.96 3 9 C5.41645782 9.16687448 5.41645782 9.16687448 8 9 C8.66 8.34 9.32 7.68 10 7 C9.6814823 4.89179203 9.6814823 4.89179203 9 3 C7.02 3 5.04 3 3 3 Z " fill="#000000" transform="translate(295,807)"/>
<path d="M0 0 C4.29 0 8.58 0 13 0 C13 0.99 13 1.98 13 3 C10.03 3 7.06 3 4 3 C4 4.65 4 6.3 4 8 C6.64 8 9.28 8 12 8 C12 8.99 12 9.98 12 11 C9.36 11 6.72 11 4 11 C4 12.98 4 14.96 4 17 C6.97 17 9.94 17 13 17 C13 17.99 13 18.98 13 20 C8.71 20 4.42 20 0 20 C0 13.4 0 6.8 0 0 Z " fill="#000000" transform="translate(401,807)"/>
<path d="M0 0 C0.99 0 1.98 0 3 0 C4.17495143 2.93425371 5.33850852 5.87289513 6.5 8.8125 C6.83386719 9.64587891 7.16773438 10.47925781 7.51171875 11.33789062 C7.82753906 12.14033203 8.14335937 12.94277344 8.46875 13.76953125 C8.90864258 14.87711792 8.90864258 14.87711792 9.35742188 16.00708008 C10 18 10 18 10 21 C8.68 20.67 7.36 20.34 6 20 C5.67 18.35 5.34 16.7 5 15 C2.36 15 -0.28 15 -3 15 C-3.33 16.65 -3.66 18.3 -4 20 C-5.32 20.33 -6.64 20.66 -8 21 C-2.92307692 2.92307692 -2.92307692 2.92307692 0 0 Z M0 7 C-0.33 8.65 -0.66 10.3 -1 12 C0.32 12 1.64 12 3 12 C2.67 10.35 2.34 8.7 2 7 C1.34 7 0.68 7 0 7 Z " fill="#000000" transform="translate(328,806)"/>
<path d="M0 0 C0.99 0 1.98 0 3 0 C3.33 5.61 3.66 11.22 4 17 C7.465 16.505 7.465 16.505 11 16 C12.10514766 12.68455701 12.32107631 9.79589889 12.5625 6.3125 C12.64628906 5.13300781 12.73007812 3.95351563 12.81640625 2.73828125 C12.87699219 1.83464844 12.93757812 0.93101562 13 0 C13.99 0 14.98 0 16 0 C16.08112454 2.58396679 16.14054748 5.16537568 16.1875 7.75 C16.21263672 8.47960937 16.23777344 9.20921875 16.26367188 9.9609375 C16.30755958 13.17936945 16.21999116 15.57223941 14.734375 18.4609375 C11.82574265 21.04202116 8.77932474 21.08381567 5 21 C2.5625 20.1875 2.5625 20.1875 1 19 C-0.65497356 15.69005287 -0.10084335 12.00877 -0.0625 8.375 C-0.05798828 7.57320312 -0.05347656 6.77140625 -0.04882812 5.9453125 C-0.03703168 3.96350994 -0.01909605 1.98174567 0 0 Z " fill="#000000" transform="translate(791,807)"/>
<path d="M0 0 C0.99 0 1.98 0 3 0 C3.33 5.61 3.66 11.22 4 17 C7.465 16.505 7.465 16.505 11 16 C12.10514766 12.68455701 12.32107631 9.79589889 12.5625 6.3125 C12.64628906 5.13300781 12.73007812 3.95351563 12.81640625 2.73828125 C12.87699219 1.83464844 12.93757812 0.93101562 13 0 C13.99 0 14.98 0 16 0 C16.08112454 2.58396679 16.14054748 5.16537568 16.1875 7.75 C16.21263672 8.47960937 16.23777344 9.20921875 16.26367188 9.9609375 C16.30755958 13.17936945 16.21999116 15.57223941 14.734375 18.4609375 C11.82574265 21.04202116 8.77932474 21.08381567 5 21 C2.5625 20.1875 2.5625 20.1875 1 19 C-0.65497356 15.69005287 -0.10084335 12.00877 -0.0625 8.375 C-0.05798828 7.57320312 -0.05347656 6.77140625 -0.04882812 5.9453125 C-0.03703168 3.96350994 -0.01909605 1.98174567 0 0 Z " fill="#000000" transform="translate(512,807)"/>
<path d="M0 0 C0 0.99 0 1.98 0 3 C-2.97 3 -5.94 3 -9 3 C-6.69312505 7.6137499 -5.45281192 7.86636096 -1 10 C1 13 1 13 0.875 16.0625 C0 19 0 19 -1.7578125 20.20703125 C-4.37860445 21.1338967 -6.01501815 21.02720321 -8.75 20.625 C-9.54921875 20.51414062 -10.3484375 20.40328125 -11.171875 20.2890625 C-12.07679688 20.14597656 -12.07679688 20.14597656 -13 20 C-13 19.01 -13 18.02 -13 17 C-9.7 17 -6.4 17 -3 17 C-3.49657144 13.01214978 -3.49657144 13.01214978 -5.8125 11.91015625 C-6.8953125 11.49056641 -6.8953125 11.49056641 -8 11.0625 C-11.86713198 9.29526227 -11.86713198 9.29526227 -13.125 6.5 C-12.98660898 3.73217957 -12.60955739 2.25338035 -11 0 C-6.94952424 -1.35015859 -4.2079832 -0.62084998 0 0 Z " fill="#000000" transform="translate(554,807)"/>
<path d="M0 0 C0.66 0.33 1.32 0.66 2 1 C2 1.99 2 2.98 2 4 C0.9275 3.9175 -0.145 3.835 -1.25 3.75 C-4.96598456 3.68502084 -4.96598456 3.68502084 -7.4375 5.625 C-9.47161336 8.71685231 -9.60605429 10.36367425 -9 14 C-7.56338689 16.52006844 -7.56338689 16.52006844 -5 18 C-1.3324787 18.33417929 -1.3324787 18.33417929 2 18 C2 18.99 2 19.98 2 21 C-1.8587129 22.92935645 -5.82026512 22.39324496 -9.8125 21.0625 C-13.153088 17.91280274 -13.82736918 14.51842408 -14 10 C-13.28238567 6.1381992 -11.72940171 3.61112035 -8.6875 1.0625 C-5.57519709 -0.16794534 -3.31983634 -0.29509656 0 0 Z " fill="#000000" transform="translate(279,806)"/>
<path d="M0 0 C1.32 0 2.64 0 4 0 C7 5.75 7 5.75 7 8 C7.66 8 8.32 8 9 8 C9.309375 7.05125 9.61875 6.1025 9.9375 5.125 C11 2 11 2 12 0 C13.32 0 14.64 0 16 0 C15.07597272 3.05639793 14.23325755 5.65477883 12.4375 8.3125 C10.41909616 12.08603761 10.26679269 15.77731573 10 20 C8.68 20 7.36 20 6 20 C5.938125 18.700625 5.87625 17.40125 5.8125 16.0625 C5.31094133 11.25969572 3.58692832 7.90874889 1.05859375 3.84765625 C0 2 0 2 0 0 Z " fill="#000000" transform="translate(730,807)"/>
<path d="M0 0 C5.28 0 10.56 0 16 0 C16 0.99 16 1.98 16 3 C14.02 3 12.04 3 10 3 C10 8.61 10 14.22 10 20 C8.68 20 7.36 20 6 20 C6 14.39 6 8.78 6 3 C4.02 3 2.04 3 0 3 C0 2.01 0 1.02 0 0 Z " fill="#000000" transform="translate(566,807)"/>
<path d="M0 0 C5.28 0 10.56 0 16 0 C16 0.99 16 1.98 16 3 C14.02 3 12.04 3 10 3 C10 8.61 10 14.22 10 20 C8.68 20 7.36 20 6 20 C6 14.39 6 8.78 6 3 C4.02 3 2.04 3 0 3 C0 2.01 0 1.02 0 0 Z " fill="#000000" transform="translate(373,807)"/>
<path d="M0 0 C3.96 0 7.92 0 12 0 C12 0.99 12 1.98 12 3 C9.03 3 6.06 3 3 3 C3 4.98 3 6.96 3 9 C5.97 9 8.94 9 12 9 C12 9.99 12 10.98 12 12 C9.03 12 6.06 12 3 12 C3 14.64 3 17.28 3 20 C2.01 20 1.02 20 0 20 C0 13.4 0 6.8 0 0 Z " fill="#000000" transform="translate(621,807)"/>
<path d="M0 0 C3.96 0 7.92 0 12 0 C12 0.99 12 1.98 12 3 C9.03 3 6.06 3 3 3 C3 4.98 3 6.96 3 9 C5.64 9 8.28 9 11 9 C11 9.99 11 10.98 11 12 C8.36 12 5.72 12 3 12 C3 14.64 3 17.28 3 20 C2.01 20 1.02 20 0 20 C0 13.4 0 6.8 0 0 Z " fill="#000000" transform="translate(351,807)"/>
<path d="M0 0 C0.99 0 1.98 0 3 0 C3.11597653 3.77057547 3.18717396 7.54069393 3.25 11.3125 C3.30027344 12.9202832 3.30027344 12.9202832 3.3515625 14.56054688 C3.36445313 15.58857422 3.37734375 16.61660156 3.390625 17.67578125 C3.41157227 18.62364502 3.43251953 19.57150879 3.45410156 20.5480957 C3 23 3 23 1.22558594 24.83276367 C-1 26 -1 26 -5 26 C-4.6875 24.0625 -4.6875 24.0625 -4 22 C-3.01 21.67 -2.02 21.34 -1 21 C-0.67 14.07 -0.34 7.14 0 0 Z " fill="#000000" transform="translate(494,807)"/>
<path d="M0 0 C4.62 0 9.24 0 14 0 C14 0.99 14 1.98 14 3 C12.35 3 10.7 3 9 3 C9 7.95 9 12.9 9 18 C8.01 18 7.02 18 6 18 C6 13.05 6 8.1 6 3 C4.02 3 2.04 3 0 3 C0 2.01 0 1.02 0 0 Z " fill="#000000" transform="translate(829,566)"/>
<path d="M0 0 C0.66 0.66 1.32 1.32 2 2 C-1.96 5.96 -5.92 9.92 -10 14 C-10 11 -10 11 -8.57421875 9.31640625 C-7.95160156 8.73761719 -7.32898438 8.15882813 -6.6875 7.5625 C-4.18913888 5.17540192 -1.95209832 2.87073283 0 0 Z " fill="#0C0C0C" transform="translate(595,585)"/>
</svg>
